HIERARCHY
ROOT Root
{
	OFFSET 0.00 0.00 0.00
	CHANNELS 6 Xposition Yposition Zposition Xrotation Yrotation Zrotation
	JOINT L_Femur
	{
		OFFSET 2.78527 0.00000 0.00000
		CHANNELS 3 Xrotation Yrotation Zrotation
		JOINT L_Tibia
		{
			OFFSET 0.00000 -16.41095 0.00000
			CHANNELS 3 Xrotation Yrotation Zrotation
			JOINT L_Foot
			{
				OFFSET 0.00000 -14.21163 0.00000
				CHANNELS 3 Xrotation Yrotation Zrotation
				JOINT L_Toe
				{
					OFFSET 0.00000 -1.60827 6.00215
					CHANNELS 3 Xrotation Yrotation Zrotation
					End Site
					{
						OFFSET 0.00000 0.00000 2.95275
					}
				}
			}
		}
	}
	JOINT R_Femur
	{
		OFFSET -2.78527 0.00000 0.00000
		CHANNELS 3 Xrotation Yrotation Zrotation
		JOINT R_Tibia
		{
			OFFSET 0.00000 -16.41095 0.00000
			CHANNELS 3 Xrotation Yrotation Zrotation
			JOINT R_Foot
			{
				OFFSET 0.00000 -14.21163 0.00000
				CHANNELS 3 Xrotation Yrotation Zrotation
				JOINT R_Toe
				{
					OFFSET 0.00000 -1.60827 6.00215
					CHANNELS 3 Xrotation Yrotation Zrotation
					End Site
					{
						OFFSET 0.00000 0.00000 2.95275
					}
				}
			}
		}
	}
	JOINT LowerBack
	{
		OFFSET 0.00000 0.03937 0.00000
		CHANNELS 3 Xrotation Yrotation Zrotation
		JOINT Thorax
		{
			OFFSET 0.00000 7.01329 0.00000
			CHANNELS 3 Xrotation Yrotation Zrotation
			JOINT Neck
			{
				OFFSET 0.00000 7.25825 0.00000
				CHANNELS 3 Xrotation Yrotation Zrotation
				JOINT Head
				{
					OFFSET 0.00000 5.63334 0.00000
					CHANNELS 3 Xrotation Yrotation Zrotation
					End Site
					{
						OFFSET 0.00000 4.52755 0.00000
					}
				}
			}
			JOINT L_Collar
			{
				OFFSET 0.00000 7.25825 0.00000
				CHANNELS 3 Xrotation Yrotation Zrotation
				JOINT L_Humerus
				{
					OFFSET 6.91821 -0.00003 0.00000
					CHANNELS 3 Xrotation Yrotation Zrotation
					JOINT L_Elbow
					{
						OFFSET 10.34006 -0.00004 0.00000
						CHANNELS 3 Xrotation Yrotation Zrotation
						JOINT L_Wrist
						{
							OFFSET 7.25554 -0.00003 0.00000
							CHANNELS 3 Xrotation Yrotation Zrotation
							JOINT L_Thumb
							{
								OFFSET 0.00000 0.00000 0.00000
								CHANNELS 3 Xrotation Yrotation Zrotation
								End Site
								{
									OFFSET 0.00000 0.00000 3.93700
								}
							}
							JOINT L_Wrist_End
							{
								OFFSET 3.93700 -0.00001 0.00000
								CHANNELS 3 Xrotation Yrotation Zrotation
							}
						}
					}
				}
			}
			JOINT R_Collar
			{
				OFFSET 0.00000 7.25825 0.00000
				CHANNELS 3 Xrotation Yrotation Zrotation
				JOINT R_Humerus
				{
					OFFSET -6.91821 -0.00003 0.00000
					CHANNELS 3 Xrotation Yrotation Zrotation
					JOINT R_Elbow
					{
						OFFSET -10.34006 -0.00004 0.00000
						CHANNELS 3 Xrotation Yrotation Zrotation
						JOINT R_Wrist
						{
							OFFSET -7.25554 -0.00003 0.00000
							CHANNELS 3 Xrotation Yrotation Zrotation
							JOINT R_Thumb
							{
								OFFSET 0.00000 0.00000 0.00000
								CHANNELS 3 Xrotation Yrotation Zrotation
								End Site
								{
									OFFSET 0.00000 0.00000 3.93700
								}
							}
							JOINT R_Wrist_End
							{
								OFFSET -5.39369 -0.00002 0.00000
								CHANNELS 3 Xrotation Yrotation Zrotation
							}
						}
					}
				}
			}
		}
	}
}
MOTION
Frames: 9
Frame Time: 0.033332
 -24.5356 32.8910 -3.2441 5.6719 -9.6685 -0.8169 -1.4381 26.7030 4.9111 3.7786 -0.0000 -0.0000 -9.8835 -11.3861 1.1908 -7.7564 0.0000 -0.0000 -3.1979 9.5206 -4.2937 3.8826 -0.0000 0.0000 -9.4802 9.3506 1.3387 -9.3536 0.0000 -0.0000 -4.0762 -1.6508 -10.8044 -0.5552 -1.5121 13.5964 -0.7035 -13.1136 3.7365 -25.6397 18.2422 19.0598 -6.0599 29.7047 21.7579 -21.3582 -10.9359 -24.2484 -0.0000 -7.5816 -0.0000 -8.9049 3.5186 -2.0813 -0.0000 -0.0000 0.0000 -0.0000 -0.0000 0.0000 -0.5849 -8.8352 -21.5929 -50.1460 -6.6512 34.9309 -0.0000 7.4292 0.0000 4.9402 1.5410 -14.0575 -0.0000 -0.0000 0.0000 -0.0000 -0.0000 0.0000
 -24.5095 32.8900 -3.2412 5.6593 -9.6591 -0.8267 -1.4292 26.6848 4.8749 3.8189 -0.0000 0.0000 -9.9372 -11.3819 1.1256 -7.7665 0.0000 0.0000 -3.1791 9.5155 -4.3362 3.8745 -0.0000 0.0000 -9.4663 9.3477 1.3639 -9.3933 0.0000 0.0000 -4.0823 -1.6355 -10.8100 -0.5637 -1.5005 13.5676 -0.6140 -13.2212 3.7415 -25.7444 18.2831 19.1337 -6.1012 29.6912 21.7971 -21.3261 -10.9941 -24.3009 -0.0000 -7.5370 -0.0000 -8.9859 3.4632 -2.0466 -0.0000 -0.0000 0.0000 -0.0000 -0.0000 0.0000 -0.5659 -8.8275 -21.5774 -50.1684 -6.6847 34.9343 -0.0000 7.4674 0.0000 5.0529 1.4359 -13.9720 -0.0000 -0.0000 0.0000 -0.0000 -0.0000 0.0000
 -24.4824 32.8896 -3.2384 5.6465 -9.6555 -0.8338 -1.4092 26.6464 4.8277 3.8514 0.0000 -0.0000 -9.9736 -11.3479 1.1826 -7.7484 0.0000 -0.0000 -3.1564 9.5092 -4.3835 3.8640 -0.0000 0.0000 -9.4570 9.3488 1.3732 -9.3786 0.0000 -0.0000 -4.0899 -1.6230 -10.8067 -0.5705 -1.4923 13.5404 -0.5802 -13.3287 3.7441 -25.7612 18.3575 19.1668 -6.0960 29.6863 21.7979 -21.3793 -10.9922 -24.3427 -0.0000 -7.5167 -0.0000 -8.8686 3.4964 -2.0286 -0.0000 0.0000 -0.0000 -0.0000 0.0000 -0.0000 -0.5488 -8.8144 -21.5680 -50.1297 -6.6740 34.9273 -0.0000 7.5077 0.0000 5.0726 1.4338 -13.9639 -0.0000 -0.0000 0.0000 -0.0000 -0.0000 0.0000
 -24.4496 32.8899 -3.2346 5.6178 -9.6407 -0.8114 -1.3555 26.5857 4.7298 3.8901 0.0000 0.0000 -10.0004 -11.3030 1.2926 -7.7545 0.0000 -0.0000 -3.1129 9.4427 -4.4932 3.8482 -0.0000 -0.0000 -9.4573 9.4348 1.5270 -9.3630 0.0000 -0.0000 -4.1003 -1.6114 -10.7853 -0.5646 -1.4883 13.4748 -0.5648 -13.5702 3.7238 -25.7336 18.5656 19.2301 -6.0910 29.6439 21.8147 -21.1781 -11.0484 -24.3387 -0.0000 -7.4487 -0.0000 -8.9068 3.4042 -2.0438 -0.0000 0.0000 -0.0000 -0.0000 0.0000 -0.0000 -0.5600 -8.7713 -21.5755 -50.0657 -6.6508 34.8867 -0.0000 7.4994 0.0000 5.0660 1.4338 -13.9314 -0.0000 0.0000 -0.0000 -0.0000 0.0000 -0.0000
 -24.4225 32.8895 -3.2300 5.5976 -9.6279 -0.8064 -1.3308 26.6005 4.6726 3.9319 0.0000 0.0000 -10.0402 -11.3378 1.3270 -7.7430 0.0000 -0.0000 -3.1021 9.2986 -4.5516 3.8701 -0.0000 0.0000 -9.4595 9.5548 1.5321 -9.3487 0.0000 -0.0000 -4.1247 -1.6084 -10.7858 -0.5671 -1.4930 13.4290 -0.5266 -13.6886 3.7788 -25.6983 18.7565 19.2036 -6.0790 29.6232 21.8324 -21.2185 -11.0183 -24.3448 -0.0000 -7.3937 -0.0000 -8.9056 3.3700 -2.0510 -0.0000 0.0000 -0.0000 -0.0000 0.0000 -0.0000 -0.5112 -8.7597 -21.5820 -50.0614 -6.6197 34.8879 -0.0000 7.5093 0.0000 5.0669 1.4232 -13.8992 -0.0000 0.0000 -0.0000 -0.0000 0.0000 -0.0000
 -24.3874 32.8900 -3.2247 5.5655 -9.5533 -0.7459 -1.2342 26.5137 4.5196 3.9249 0.0000 0.0000 -10.0385 -11.3306 1.3945 -7.8155 0.0000 0.0000 -3.0356 9.0134 -4.6940 3.8212 -0.0000 -0.0000 -9.4638 9.7240 1.5963 -9.4003 0.0000 -0.0000 -4.1577 -1.6230 -10.7715 -0.5372 -1.5213 13.2748 -0.5015 -14.0371 3.7151 -25.7220 19.0197 19.4837 -6.0706 29.5447 21.8517 -21.1874 -10.9396 -24.2443 -0.0000 -7.4521 -0.0000 -8.8950 3.4510 -2.0884 -0.0000 0.0000 -0.0000 -0.0000 0.0000 -0.0000 -0.5078 -8.7274 -21.5600 -50.0492 -6.6100 34.8812 -0.0000 7.5492 0.0000 5.0985 1.4268 -13.8918 -0.0000 -0.0000 0.0000 -0.0000 -0.0000 0.0000
 -24.3353 32.8884 -3.2187 5.5575 -9.4333 -0.6468 -1.1639 26.3924 4.3038 3.9761 0.0000 -0.0000 -10.0777 -11.3419 1.5707 -7.8262 0.0000 0.0000 -3.0062 8.6160 -4.9382 3.8083 -0.0000 -0.0000 -9.5048 10.0468 1.9633 -9.3665 0.0000 0.0000 -4.2165 -1.6244 -10.7373 -0.5205 -1.5469 13.0853 -0.4051 -14.6580 3.7706 -25.7819 19.5920 19.6646 -6.1377 29.4376 21.9335 -21.0668 -10.9727 -24.2251 -0.0000 -7.3903 -0.0000 -8.9070 3.3556 -2.0882 -0.0000 0.0000 -0.0000 -0.0000 0.0000 -0.0000 -0.4716 -8.6954 -21.5224 -50.0133 -6.5721 34.7916 -0.0000 7.6222 0.0000 5.0653 1.4128 -13.8917 -0.0000 0.0000 -0.0000 -0.0000 0.0000 -0.0000
 -24.2808 32.8897 -3.2180 5.5504 -9.2911 -0.6283 -1.2175 26.3136 4.2123 4.1480 -0.0000 0.0000 -10.1805 -11.4328 1.6289 -7.8404 0.0000 0.0000 -3.0195 8.2565 -5.0809 3.8405 -0.0000 0.0000 -9.5171 10.2828 2.1282 -9.3727 0.0000 0.0000 -4.2542 -1.6296 -10.7183 -0.5229 -1.5665 13.0119 -0.3711 -14.9719 3.8951 -25.6994 20.0300 19.5824 -6.1175 29.3487 21.9644 -21.0373 -11.0468 -24.1971 -0.0000 -7.3470 -0.0000 -8.8527 3.3269 -2.0894 -0.0000 0.0000 -0.0000 -0.0000 0.0000 -0.0000 -0.4243 -8.6748 -21.4994 -49.9128 -6.4327 34.7078 -0.0000 7.6392 0.0000 5.0650 1.4454 -13.8647 -0.0000 -0.0000 0.0000 -0.0000 -0.0000 0.0000
 -24.2163 32.8882 -3.2172 5.5460 -9.1535 -0.5815 -1.2573 26.2337 4.0699 4.3309 -0.0000 0.0000 -10.2845 -11.5136 1.7341 -7.8536 0.0000 0.0000 -3.0463 8.0283 -5.2334 3.9445 -0.0000 -0.0000 -9.5809 10.3022 2.0583 -9.4063 0.0000 -0.0000 -4.3050 -1.6381 -10.7082 -0.5189 -1.5931 12.8861 -0.2857 -15.2737 3.9748 -25.7485 20.4887 19.7162 -6.1086 29.2625 21.9935 -20.9636 -11.0801 -24.0882 -0.0000 -7.4396 -0.0000 -8.9287 3.2919 -1.9309 -0.0000 0.0000 -0.0000 -0.0000 0.0000 -0.0000 -0.3680 -8.6478 -21.4457 -49.8555 -6.2995 34.6987 -0.0000 7.7302 0.0000 5.1169 1.3717 -13.8671 -0.0000 -0.0000 0.0000 -0.0000 -0.0000 0.0000
